<?xml version="1.0" encoding="utf-8"?>
<!-- Generator: Adobe Illustrator 24.2.3, SVG Export Plug-In . SVG Version: 6.00 Build 0)  -->
<svg version="1.1" id="Layer_1" xmlns="http://www.w3.org/2000/svg" xmlns:xlink="http://www.w3.org/1999/xlink" x="0px" y="0px"
	 viewBox="0 0 264.31 142.35" style="enable-background:new 0 0 264.31 142.35;" xml:space="preserve">
<style type="text/css">
	.st0{fill:#0F0E0C;}
	.st1{fill:#00A44D;}
	.st2{fill:#FFFFFF;}
	.st3{fill:none;}
	.st4{fill:#00A44D;stroke:#FFFFFF;stroke-miterlimit:10;}
</style>
<rect class="st0" width="264.31" height="142.35"/>
<g>
	<rect x="21.38" y="21.2" class="st1" width="221.56" height="30.12"/>
	<g>
		<g>
			<path class="st2" d="M102.8,26.1h-4.62v15.92h2.34v-5.84h1.86c1.83,0,3.3-0.49,4.38-1.46c1.09-0.98,1.64-2.24,1.64-3.77
				c0-1.53-0.5-2.73-1.49-3.58C105.95,26.52,104.56,26.1,102.8,26.1z M100.53,28.2h1.95c2.35,0,3.5,0.93,3.5,2.83
				c0,0.98-0.31,1.72-0.94,2.25c-0.63,0.53-1.57,0.8-2.8,0.8h-1.72V28.2z"/>
			<path class="st2" d="M110.87,25.81c-0.28,0.26-0.42,0.6-0.42,0.99c0,0.39,0.14,0.73,0.42,0.98c0.27,0.26,0.61,0.39,1,0.39
				c0.4,0,0.74-0.13,1.02-0.4s0.42-0.59,0.42-0.97c0-0.39-0.14-0.73-0.42-0.99C112.33,25.29,111.42,25.29,110.87,25.81z"/>
			<rect x="110.69" y="30.52" class="st2" width="2.3" height="11.5"/>
			<path class="st2" d="M122.25,30.26c-1.57,0-2.83,0.59-3.74,1.74v-1.48h-2.3V47.1h2.3v-6.25c0.81,0.95,1.89,1.43,3.22,1.43
				c1.68,0,3.02-0.59,3.99-1.75c0.96-1.15,1.44-2.69,1.44-4.58c0-1.71-0.43-3.09-1.29-4.12C125.01,30.79,123.79,30.26,122.25,30.26z
				 M124.82,35.91c0,1.4-0.3,2.51-0.89,3.28c-0.58,0.76-1.37,1.14-2.41,1.14c-0.88,0-1.59-0.29-2.16-0.88
				c-0.57-0.6-0.85-1.31-0.85-2.17v-1.54c0-1.02,0.31-1.87,0.91-2.54c0.6-0.67,1.38-0.99,2.38-0.99c0.93,0,1.65,0.31,2.2,0.96
				C124.54,33.82,124.82,34.74,124.82,35.91z"/>
			<path class="st2" d="M135.64,30.26c-1.57,0-2.83,0.59-3.74,1.74v-1.48h-2.3V47.1h2.3v-6.25c0.81,0.95,1.89,1.43,3.22,1.43
				c1.68,0,3.02-0.59,3.99-1.75c0.96-1.15,1.44-2.69,1.44-4.58c0-1.71-0.43-3.09-1.29-4.12C138.4,30.79,137.18,30.26,135.64,30.26z
				 M138.21,35.91c0,1.4-0.3,2.51-0.89,3.28c-0.58,0.76-1.37,1.14-2.41,1.14c-0.88,0-1.59-0.29-2.16-0.88
				c-0.57-0.6-0.85-1.31-0.85-2.17v-1.54c0-1.02,0.31-1.87,0.91-2.54c0.6-0.67,1.38-0.99,2.38-0.99c0.93,0,1.65,0.31,2.2,0.96
				C137.93,33.82,138.21,34.74,138.21,35.91z"/>
			<path class="st2" d="M148.25,30.26c-1.84,0-3.32,0.55-4.41,1.63c-1.08,1.08-1.63,2.6-1.63,4.5c0,1.76,0.53,3.19,1.57,4.26
				c1.05,1.07,2.46,1.62,4.2,1.62c1.79,0,3.24-0.56,4.3-1.66c1.06-1.1,1.6-2.58,1.6-4.39c0-1.85-0.5-3.32-1.49-4.37
				C151.41,30.8,150.01,30.26,148.25,30.26z M148.12,40.33c-1.1,0-1.94-0.34-2.59-1.05c-0.65-0.71-0.97-1.7-0.97-2.94
				c0-1.3,0.33-2.32,0.97-3.05c0.64-0.73,1.49-1.08,2.6-1.08c1.11,0,1.94,0.34,2.54,1.04c0.59,0.7,0.9,1.73,0.9,3.04
				c0,1.3-0.3,2.32-0.9,3.01C150.07,39.99,149.24,40.33,148.12,40.33z"/>
			<path class="st2" d="M165.88,37.59c-0.16-0.35-0.4-0.66-0.71-0.93c-0.3-0.26-0.66-0.5-1.08-0.7c-0.41-0.2-0.87-0.4-1.38-0.59
				c-0.38-0.14-0.71-0.27-1.01-0.4c-0.28-0.11-0.52-0.24-0.71-0.38c-0.18-0.13-0.32-0.28-0.41-0.44c-0.09-0.16-0.13-0.37-0.13-0.61
				c0-0.19,0.04-0.36,0.13-0.52c0.09-0.16,0.22-0.3,0.39-0.41c0.17-0.12,0.39-0.22,0.63-0.28c0.25-0.07,0.54-0.1,0.86-0.1
				c1.04,0,1.97,0.26,2.76,0.76l0.37,0.23v-2.37l-0.14-0.06c-0.8-0.34-1.73-0.52-2.74-0.52c-0.57,0-1.14,0.07-1.68,0.21
				c-0.55,0.14-1.04,0.36-1.47,0.64c-0.44,0.29-0.79,0.65-1.05,1.08c-0.27,0.43-0.4,0.94-0.4,1.49c0,0.45,0.07,0.85,0.21,1.2
				c0.14,0.34,0.35,0.65,0.63,0.92c0.27,0.26,0.61,0.5,1.01,0.71c0.39,0.2,0.84,0.4,1.35,0.6c0.36,0.14,0.7,0.27,1.01,0.39
				c0.3,0.12,0.56,0.25,0.78,0.4c0.21,0.14,0.37,0.3,0.49,0.48c0.11,0.17,0.17,0.38,0.17,0.62c0,0.33,0,1.32-2.16,1.32
				c-1.14,0-2.19-0.34-3.14-1.02l-0.38-0.27v2.49l0.13,0.06c0.89,0.45,1.95,0.68,3.16,0.68c0.61,0,1.2-0.07,1.76-0.2
				c0.57-0.14,1.07-0.35,1.51-0.62c0.44-0.28,0.8-0.65,1.07-1.08c0.27-0.44,0.41-0.96,0.41-1.54
				C166.13,38.36,166.05,37.94,165.88,37.59z"/>
		</g>
		<polygon class="st2" points="155.41,26.47 155.32,26.47 154.38,26.47 154.58,31.38 155.32,31.38 155.41,31.38 156.16,31.38 
			156.35,26.47 		"/>
	</g>
	<rect x="21.38" y="35.39" class="st2" width="71.51" height="1.75"/>
	<rect x="171.42" y="35.39" class="st2" width="71.51" height="1.75"/>
</g>
<g>
	<path class="st3" d="M42.89,74.79h-0.63v7.25l0.63,0c2,0,3.63-1.63,3.63-3.63S44.89,74.79,42.89,74.79z"/>
	<polygon class="st3" points="214.25,88.97 213.35,86.38 212.45,88.97 	"/>
	<polygon class="st3" points="138.19,94.4 138.19,107.79 156.72,77.44 140.46,77.44 140.46,64.05 121.93,94.4 	"/>
	<path class="st1" d="M68.46,108.42h20.89V63.43H68.46V108.42z M71.21,66.18H86.6v39.49H71.21V66.18z"/>
	<path class="st1" d="M138.19,94.4h-16.26l18.53-30.35v-0.62H93.48v14.01h16.26l-18.91,30.98h46.98l0.38-0.62V94.4z M135.44,105.67
		h-23.61h-5.01H95.73l18.91-30.98H96.23v-8.51h23.61h5.01h11.09l-18.91,30.98h18.41V105.67z"/>
	<path class="st1" d="M185.17,94.4h-16.26l18.91-30.98h-46.98h-0.38v0.62v13.39h16.26l-18.53,30.35l-0.38,0.62h0.38h45.07l1.91-5.5
		V94.4z M182.42,105.67h-23.61h-5.01h-11.09l18.91-30.98h-18.41v-8.51h23.61h5.01h11.09l-18.91,30.98h18.41V105.67z"/>
	<path class="st1" d="M227.34,63.53h-28.49l-13.68,39.39l-1.91,5.5h1.91h20.53l2.46-7.08h10.39l2.46,7.08h21.93L227.34,63.53z
		 M220.51,98.59H206.2l-2.46,7.08h-0.51h-15.59h-0.51l13.68-39.39h0.51h7.96h7.63h0.51h7.96l13.68,39.39h-16.1L220.51,98.59z"/>
	<path class="st1" d="M208.59,91.72h9.53L213.35,78L208.59,91.72z M214.25,88.97h-1.8l0.9-2.59L214.25,88.97z"/>
	<path class="st1" d="M50.03,63.43H21.38v44.99h20.89V92.29c3.68,2.42,7.59,2.39,7.77,2.38c8.78,0,15.93-7.01,15.93-15.62
		C65.96,70.43,58.81,63.43,50.03,63.43z M50.03,91.92c0,0-5.46,0.1-8.8-4.31h-1.72v18.05h-5.86h-9.53V66.18h8.52h6.87h3.54h6.98
		c7.28,0,13.18,5.76,13.18,12.87C63.21,86.16,57.31,91.92,50.03,91.92z"/>
	<path class="st1" d="M49.26,78.41c0-3.52-2.85-6.38-6.38-6.38h-3.38v12.77l3.38-0.02C46.41,84.79,49.26,81.94,49.26,78.41z
		 M42.89,82.04l-0.63,0v-7.25h0.63c2,0,3.63,1.63,3.63,3.63S44.89,82.04,42.89,82.04z"/>
	<rect x="71.21" y="66.18" class="st2" width="15.39" height="39.49"/>
	<polygon class="st2" points="135.94,66.18 124.85,66.18 119.83,66.18 96.23,66.18 96.23,74.69 114.64,74.69 95.73,105.67 
		106.82,105.67 111.83,105.67 135.44,105.67 135.44,97.15 117.03,97.15 	"/>
	<polygon class="st2" points="182.92,66.18 171.83,66.18 166.81,66.18 143.21,66.18 143.21,74.69 161.62,74.69 142.71,105.67 
		153.8,105.67 158.81,105.67 182.42,105.67 182.42,97.15 164.01,97.15 	"/>
	<path class="st2" d="M225.39,66.28h-7.96h-0.51h-7.63h-7.96h-0.51l-13.68,39.39h0.51h15.59h0.51l2.46-7.08h14.31l2.46,7.08h16.1
		L225.39,66.28z M208.59,91.72L213.35,78l4.77,13.72H208.59z"/>
	<path class="st2" d="M50.03,66.18h-6.98h-3.54h-6.87h-8.52v39.49h9.53h5.86V87.61h1.72c3.33,4.41,8.8,4.31,8.8,4.31
		c7.28,0,13.18-5.76,13.18-12.87C63.21,71.94,57.31,66.18,50.03,66.18z M39.51,84.81V72.04h3.38c3.52,0,6.38,2.85,6.38,6.38
		s-2.85,6.38-6.38,6.38L39.51,84.81z"/>
</g>
<g>
	<ellipse class="st4" cx="132.16" cy="125.56" rx="31.77" ry="9.13"/>
	<g>
		<path class="st2" d="M113.4,129.37h-4.02v-7.58h3.85v0.8h-2.96v2.52h2.74v0.8h-2.74v2.65h3.13V129.37z"/>
		<path class="st2" d="M114.41,129.17v-0.93c0.47,0.35,0.99,0.52,1.56,0.52c0.76,0,1.14-0.25,1.14-0.76c0-0.15-0.03-0.27-0.1-0.37
			c-0.07-0.1-0.15-0.19-0.26-0.27c-0.11-0.08-0.24-0.15-0.39-0.21c-0.15-0.06-0.31-0.13-0.48-0.19c-0.24-0.09-0.45-0.19-0.63-0.29
			c-0.18-0.1-0.33-0.2-0.45-0.33c-0.12-0.12-0.21-0.26-0.27-0.42c-0.06-0.15-0.09-0.34-0.09-0.54c0-0.25,0.06-0.48,0.17-0.67
			c0.12-0.2,0.27-0.36,0.47-0.49c0.19-0.13,0.41-0.23,0.66-0.3c0.25-0.07,0.5-0.1,0.77-0.1c0.47,0,0.89,0.08,1.26,0.24v0.88
			c-0.4-0.26-0.86-0.39-1.37-0.39c-0.16,0-0.31,0.02-0.44,0.06c-0.13,0.04-0.24,0.09-0.34,0.16c-0.09,0.07-0.17,0.15-0.22,0.24
			c-0.05,0.09-0.08,0.2-0.08,0.31c0,0.14,0.03,0.26,0.08,0.35c0.05,0.09,0.13,0.18,0.22,0.25c0.1,0.07,0.22,0.14,0.36,0.2
			c0.14,0.06,0.3,0.13,0.48,0.2c0.24,0.09,0.45,0.19,0.64,0.28c0.19,0.1,0.35,0.21,0.49,0.33c0.13,0.12,0.24,0.26,0.31,0.42
			c0.07,0.16,0.11,0.35,0.11,0.57c0,0.27-0.06,0.5-0.18,0.7c-0.12,0.2-0.28,0.36-0.47,0.49c-0.2,0.13-0.42,0.23-0.68,0.29
			c-0.26,0.06-0.53,0.1-0.81,0.1C115.31,129.49,114.82,129.38,114.41,129.17z"/>
		<path class="st2" d="M121.84,129.31c-0.2,0.11-0.47,0.17-0.81,0.17c-0.95,0-1.42-0.53-1.42-1.58v-3.2h-0.93v-0.74h0.93v-1.32
			l0.87-0.28v1.6h1.36v0.74h-1.36v3.05c0,0.36,0.06,0.62,0.18,0.78c0.12,0.16,0.33,0.23,0.61,0.23c0.22,0,0.41-0.06,0.57-0.18
			V129.31z"/>
		<path class="st2" d="M123.3,129.48c-0.16,0-0.3-0.06-0.41-0.17c-0.11-0.12-0.17-0.25-0.17-0.42c0-0.16,0.06-0.3,0.17-0.42
			c0.11-0.12,0.25-0.18,0.41-0.18c0.17,0,0.31,0.06,0.42,0.18c0.12,0.12,0.17,0.26,0.17,0.42c0,0.16-0.06,0.3-0.17,0.42
			C123.61,129.42,123.47,129.48,123.3,129.48z"/>
		<path class="st2" d="M125.65,129.48c-0.16,0-0.3-0.06-0.41-0.17c-0.11-0.12-0.17-0.25-0.17-0.42c0-0.16,0.06-0.3,0.17-0.42
			c0.11-0.12,0.25-0.18,0.41-0.18c0.17,0,0.31,0.06,0.42,0.18c0.12,0.12,0.17,0.26,0.17,0.42c0,0.16-0.06,0.3-0.17,0.42
			C125.95,129.42,125.81,129.48,125.65,129.48z"/>
		<path class="st2" d="M127.99,129.48c-0.16,0-0.3-0.06-0.41-0.17c-0.11-0.12-0.17-0.25-0.17-0.42c0-0.16,0.06-0.3,0.17-0.42
			c0.11-0.12,0.25-0.18,0.41-0.18c0.17,0,0.31,0.06,0.42,0.18c0.12,0.12,0.17,0.26,0.17,0.42c0,0.16-0.06,0.3-0.17,0.42
			C128.3,129.42,128.16,129.48,127.99,129.48z"/>
		<path class="st2" d="M137.34,129.37h-4.28v-0.76h1.71v-5.89l-1.75,0.52v-0.82l2.62-0.8v6.98h1.71V129.37z"/>
		<path class="st2" d="M138.87,129.24v-0.83c0.42,0.24,0.87,0.36,1.34,0.36c0.69,0,1.22-0.28,1.6-0.83
			c0.38-0.55,0.57-1.34,0.57-2.36c-0.01,0-0.01,0-0.02,0c-0.32,0.65-0.89,0.98-1.69,0.98c-0.65,0-1.18-0.22-1.59-0.66
			c-0.42-0.44-0.62-1.01-0.62-1.7c0-0.74,0.23-1.35,0.68-1.82c0.46-0.47,1.04-0.71,1.75-0.71c0.75,0,1.33,0.3,1.75,0.89
			c0.42,0.59,0.63,1.45,0.63,2.58c0,1.4-0.27,2.48-0.81,3.23c-0.54,0.76-1.3,1.14-2.26,1.14
			C139.68,129.49,139.24,129.41,138.87,129.24z M140.81,122.4c-0.42,0-0.77,0.16-1.05,0.47c-0.28,0.32-0.42,0.72-0.42,1.2
			c0,0.53,0.14,0.95,0.41,1.26c0.27,0.3,0.65,0.46,1.11,0.46c0.41,0,0.75-0.14,1.04-0.42c0.28-0.28,0.42-0.62,0.42-1.02
			c0-0.57-0.14-1.04-0.42-1.41C141.63,122.58,141.26,122.4,140.81,122.4z"/>
		<path class="st2" d="M144.7,129.24v-0.83c0.42,0.24,0.87,0.36,1.34,0.36c0.69,0,1.22-0.28,1.6-0.83c0.38-0.55,0.57-1.34,0.57-2.36
			c-0.01,0-0.01,0-0.02,0c-0.32,0.65-0.89,0.98-1.69,0.98c-0.65,0-1.18-0.22-1.59-0.66c-0.42-0.44-0.62-1.01-0.62-1.7
			c0-0.74,0.23-1.35,0.68-1.82c0.46-0.47,1.04-0.71,1.75-0.71c0.75,0,1.33,0.3,1.75,0.89c0.42,0.59,0.63,1.45,0.63,2.58
			c0,1.4-0.27,2.48-0.81,3.23c-0.54,0.76-1.3,1.14-2.26,1.14C145.51,129.49,145.07,129.41,144.7,129.24z M146.64,122.4
			c-0.42,0-0.77,0.16-1.05,0.47c-0.28,0.32-0.42,0.72-0.42,1.2c0,0.53,0.14,0.95,0.41,1.26c0.27,0.3,0.65,0.46,1.11,0.46
			c0.41,0,0.75-0.14,1.04-0.42c0.28-0.28,0.42-0.62,0.42-1.02c0-0.57-0.14-1.04-0.42-1.41C147.46,122.58,147.09,122.4,146.64,122.4z
			"/>
		<path class="st2" d="M150.53,129.24v-0.83c0.42,0.24,0.87,0.36,1.34,0.36c0.69,0,1.22-0.28,1.6-0.83
			c0.38-0.55,0.57-1.34,0.57-2.36c-0.01,0-0.01,0-0.02,0c-0.32,0.65-0.89,0.98-1.69,0.98c-0.65,0-1.18-0.22-1.59-0.66
			c-0.42-0.44-0.62-1.01-0.62-1.7c0-0.74,0.23-1.35,0.68-1.82c0.46-0.47,1.04-0.71,1.75-0.71c0.75,0,1.33,0.3,1.75,0.89
			c0.42,0.59,0.63,1.45,0.63,2.58c0,1.4-0.27,2.48-0.81,3.23c-0.54,0.76-1.3,1.14-2.26,1.14
			C151.35,129.49,150.91,129.41,150.53,129.24z M152.48,122.4c-0.42,0-0.77,0.16-1.05,0.47c-0.28,0.32-0.42,0.72-0.42,1.2
			c0,0.53,0.14,0.95,0.41,1.26c0.27,0.3,0.65,0.46,1.11,0.46c0.41,0,0.75-0.14,1.04-0.42c0.28-0.28,0.42-0.62,0.42-1.02
			c0-0.57-0.14-1.04-0.42-1.41C153.29,122.58,152.93,122.4,152.48,122.4z"/>
	</g>
</g>
</svg>
